<?xml version="1.0" encoding="utf-8"?>
<!-- Generator: Adobe Illustrator 19.2.0, SVG Export Plug-In . SVG Version: 6.00 Build 0)  -->
<svg version="1.1" id="图层_1" xmlns="http://www.w3.org/2000/svg" xmlns:xlink="http://www.w3.org/1999/xlink" x="0px" y="0px"
	 viewBox="0 0 32 32" style="enable-background:new 0 0 32 32;" xml:space="preserve">
<title></title>
<g id="Layer_2">
	<path d="M9,30h8c2.8,0,5-2.2,5-5v-1c3.3,0,6-2.7,6-6s-2.7-6-6-6V9c0-0.6-0.4-1-1-1H5C4.4,8,4,8.4,4,9v16C4,27.8,6.2,30,9,30z
		 M26,18c0,2.2-1.8,4-4,4v-8C24.2,14,26,15.8,26,18z M6,10h14v15c0,1.7-1.3,3-3,3H9c-1.7,0-3-1.3-3-3V10z"/>
	<path d="M8,7c0.6,0,1-0.4,1-1V4c0-0.6-0.4-1-1-1S7,3.4,7,4v2C7,6.6,7.4,7,8,7z"/>
	<path d="M13,7c0.6,0,1-0.4,1-1V3c0-0.6-0.4-1-1-1s-1,0.4-1,1v3C12,6.6,12.4,7,13,7z"/>
	<path d="M18,7c0.6,0,1-0.4,1-1V4c0-0.6-0.4-1-1-1s-1,0.4-1,1v2C17,6.6,17.4,7,18,7z"/>
</g>
</svg>
